SplineFontDB: 3.2
FontName: Essiah
FullName: Essiah
FamilyName: Essiah
Weight: Book
Copyright: Copyright (c) 2023, Michael Chapman
Version: 001.000
DefaultBaseFilename: essiah
ItalicAngle: 0
UnderlinePosition: 0
UnderlineWidth: 0
Ascent: 512
Descent: 512
InvalidEm: 0
sfntRevision: 0x00010000
LayerCount: 2
Layer: 0 1 "Back" 1
Layer: 1 1 "Fore" 0
XUID: [1021 96 -335474456 12931914]
StyleMap: 0x0040
FSType: 0
OS2Version: 4
OS2_WeightWidthSlopeOnly: 0
OS2_UseTypoMetrics: 1
CreationTime: 1701637513
ModificationTime: 1732268054
PfmFamily: 17
TTFWeight: 400
TTFWidth: 5
LineGap: 0
VLineGap: 0
Panose: 2 0 5 3 0 0 0 0 0 0
OS2TypoAscent: 512
OS2TypoAOffset: 0
OS2TypoDescent: -512
OS2TypoDOffset: 0
OS2TypoLinegap: 0
OS2WinAscent: 512
OS2WinAOffset: 0
OS2WinDescent: -512
OS2WinDOffset: 0
HheadAscent: 512
HheadAOffset: 0
HheadDescent: -512
HheadDOffset: 0
OS2SubXSize: 256
OS2SubYSize: 256
OS2SubXOff: 0
OS2SubYOff: 128
OS2SupXSize: 256
OS2SupYSize: 256
OS2SupXOff: 0
OS2SupYOff: 768
OS2StrikeYSize: 64
OS2StrikeYPos: 0
OS2CapHeight: 448
OS2XHeight: 448
OS2Vendor: 'PfEd'
OS2CodePages: 00000001.00000000
OS2UnicodeRanges: 00000003.00000000.00000000.00000000
MarkAttachClasses: 1
DEI: 91125
ShortTable: cvt  2
  34
  648
EndShort
ShortTable: maxp 16
  1
  0
  120
  16
  5
  0
  0
  2
  0
  1
  1
  0
  64
  46
  0
  0
EndShort
LangName: 1033 "" "" "Regular" "FontForge : Essiah : 21-7-2024" "" "Version 001.000"
GaspTable: 1 65535 2 0
Encoding: Custom
UnicodeInterp: none
NameList: AGL For New Fonts
DisplaySize: -48
AntiAlias: 1
FitToEm: 0
WinInfo: 240 16 7
BeginPrivate: 0
EndPrivate
Grid
256 0 m 4
 256 -141 371 -256 512 -256 c 4
 653 -256 768 -141 768 0 c 4
 768 141 653 256 512 256 c 4
 371 256 256 141 256 0 c 4
128 0 m 4
 128 212 300 384 512 384 c 4
 724 384 896 212 896 0 c 4
 896 -212 724 -384 512 -384 c 4
 300 -384 128 -212 128 0 c 4
1024 -512 m 5
 0 512 l 1029
0 -512 m 5
 1024 512 l 1029
0 -64 m 29
 1024 -64 l 1053
0 64 m 29
 1024 64 l 1053
448 -512 m 29
 448 512 l 1053
576 -512 m 29

StartChar: .notdef
Encoding: 65536 -1 0
Width: 491
VWidth: 1351
GlyphClass: 1
Flags: W
LayerCount: 2
Fore
SplineSet
45 0 m 1,0,-1
 45 900 l 1,1,-1
 404 900 l 1,2,-1
 404 0 l 1,3,-1
 45 0 l 1,0,-1
90 45 m 1,4,-1
 359 45 l 1,5,-1
 359 855 l 1,6,-1
 90 855 l 1,7,-1
 90 45 l 1,4,-1
EndSplineSet
Validated: 1
EndChar

StartChar: zero
Encoding: 48 48 4
Width: 704
Flags: W
LayerCount: 2
Fore
SplineSet
576 -384 m 1,0,-1
 128 -384 l 1,1,-1
 128 -256 l 1,2,-1
 448 -256 l 1,3,-1
 448 384 l 1,4,-1
 576 384 l 5,5,-1
 576 -384 l 1,0,-1
EndSplineSet
Validated: 1
EndChar

StartChar: one
Encoding: 49 49 5
Width: 704
Flags: W
LayerCount: 2
Fore
SplineSet
128 384 m 1,0,-1
 576 384 l 1,1,-1
 576 256 l 1,2,-1
 256 256 l 1,3,-1
 256 -384 l 1,4,-1
 128 -384 l 5,5,-1
 128 384 l 1,0,-1
EndSplineSet
Validated: 1
EndChar

StartChar: two
Encoding: 50 50 6
Width: 704
Flags: W
LayerCount: 2
Fore
SplineSet
128 -384 m 1,0,-1
 128 384 l 1,1,-1
 256 384 l 1,2,-1
 256 -256 l 1,3,-1
 576 -256 l 1,4,-1
 576 -384 l 1,5,-1
 128 -384 l 1,0,-1
EndSplineSet
Validated: 1
EndChar

StartChar: three
Encoding: 51 51 7
Width: 704
Flags: W
LayerCount: 2
Fore
SplineSet
576 384 m 5,0,-1
 576 -384 l 5,1,-1
 448 -384 l 5,2,-1
 448 256 l 5,3,-1
 128 256 l 5,4,-1
 128 384 l 5,5,-1
 576 384 l 5,0,-1
EndSplineSet
Validated: 1
EndChar

StartChar: four
Encoding: 52 52 8
Width: 704
Flags: W
LayerCount: 2
Fore
SplineSet
576 -384 m 5,0,-1
 128 -384 l 5,1,-1
 128 -256 l 5,2,-1
 448 -256 l 5,3,-1
 448 -64 l 5,4,-1
 128 -64 l 5,5,-1
 128 64 l 5,6,-1
 448 64 l 5,7,-1
 448 384 l 5,8,-1
 576 384 l 5,9,-1
 576 -384 l 5,0,-1
EndSplineSet
Validated: 1
EndChar

StartChar: five
Encoding: 53 53 9
Width: 704
Flags: W
LayerCount: 2
Fore
SplineSet
128 384 m 5,0,-1
 576 384 l 5,1,-1
 576 256 l 5,2,-1
 256 256 l 5,3,-1
 256 64 l 5,4,-1
 576 64 l 5,5,-1
 576 -64 l 5,6,-1
 256 -64 l 5,7,-1
 256 -384 l 5,8,-1
 128 -384 l 5,9,-1
 128 384 l 5,0,-1
EndSplineSet
Validated: 1
EndChar

StartChar: six
Encoding: 54 54 10
Width: 704
Flags: W
LayerCount: 2
Fore
SplineSet
128 -384 m 1,0,-1
 128 384 l 1,1,-1
 256 384 l 1,2,-1
 256 64 l 1,3,-1
 576 64 l 1,4,-1
 576 -64 l 1,5,-1
 256 -64 l 1,6,-1
 256 -256 l 1,7,-1
 576 -256 l 1,8,-1
 576 -384 l 1,9,-1
 128 -384 l 1,0,-1
EndSplineSet
Validated: 1
EndChar

StartChar: seven
Encoding: 55 55 11
Width: 704
Flags: W
LayerCount: 2
Fore
SplineSet
576 384 m 1,0,-1
 576 -384 l 1,1,-1
 448 -384 l 1,2,-1
 448 -64 l 1,3,-1
 128 -64 l 1,4,-1
 128 64 l 1,5,-1
 448 64 l 1,6,-1
 448 256 l 1,7,-1
 128 256 l 1,8,-1
 128 384 l 1,9,-1
 576 384 l 1,0,-1
EndSplineSet
Validated: 1
EndChar

StartChar: eight
Encoding: 56 56 12
Width: 704
Flags: W
LayerCount: 2
Fore
SplineSet
576 -384 m 5,0,-1
 128 -384 l 5,1,-1
 128 -256 l 5,2,-1
 448 -256 l 5,3,-1
 448 -64 l 5,4,-1
 256 -64 l 5,5,-1
 128 -64 l 5,6,-1
 128 64 l 5,7,-1
 128 384 l 5,8,-1
 256 384 l 5,9,-1
 256 64 l 5,10,-1
 448 64 l 5,11,-1
 448 384 l 5,12,-1
 576 384 l 5,13,-1
 576 -384 l 5,0,-1
EndSplineSet
Validated: 1
EndChar

StartChar: nine
Encoding: 57 57 13
Width: 704
Flags: W
LayerCount: 2
Fore
SplineSet
128 384 m 5,0,-1
 576 384 l 5,1,-1
 576 256 l 5,2,-1
 256 256 l 5,3,-1
 256 64 l 5,4,-1
 448 64 l 5,5,-1
 576 64 l 5,6,-1
 576 -64 l 5,7,-1
 576 -384 l 5,8,-1
 448 -384 l 5,9,-1
 448 -64 l 5,10,-1
 256 -64 l 5,11,-1
 256 -384 l 5,12,-1
 128 -384 l 5,13,-1
 128 384 l 5,0,-1
EndSplineSet
Validated: 1
EndChar

StartChar: Abreve
Encoding: 258 258 14
Width: 704
Flags: W
LayerCount: 2
Fore
SplineSet
576 -384 m 1,0,-1
 128 -384 l 1,1,-1
 128 -256 l 1,2,-1
 448 -256 l 1,3,-1
 448 384 l 1,4,-1
 576 384 l 5,5,-1
 576 -384 l 1,0,-1
EndSplineSet
Validated: 1
EndChar

StartChar: abreve
Encoding: 259 259 15
Width: 704
Flags: W
LayerCount: 2
Fore
SplineSet
128 384 m 1,0,-1
 576 384 l 1,1,-1
 576 256 l 1,2,-1
 256 256 l 1,3,-1
 256 -384 l 1,4,-1
 128 -384 l 5,5,-1
 128 384 l 1,0,-1
EndSplineSet
Validated: 1
EndChar

StartChar: Aogonek
Encoding: 260 260 16
Width: 704
Flags: W
LayerCount: 2
Fore
SplineSet
128 -384 m 1,0,-1
 128 384 l 1,1,-1
 256 384 l 1,2,-1
 256 -256 l 1,3,-1
 576 -256 l 1,4,-1
 576 -384 l 1,5,-1
 128 -384 l 1,0,-1
EndSplineSet
Validated: 1
EndChar

StartChar: aogonek
Encoding: 261 261 17
Width: 704
Flags: W
LayerCount: 2
Fore
SplineSet
576 384 m 5,0,-1
 576 -384 l 5,1,-1
 448 -384 l 5,2,-1
 448 256 l 5,3,-1
 128 256 l 5,4,-1
 128 384 l 5,5,-1
 576 384 l 5,0,-1
EndSplineSet
Validated: 1
EndChar

StartChar: Cacute
Encoding: 262 262 18
Width: 704
Flags: W
LayerCount: 2
Fore
SplineSet
576 -384 m 5,0,-1
 128 -384 l 5,1,-1
 128 -256 l 5,2,-1
 448 -256 l 5,3,-1
 448 -64 l 5,4,-1
 128 -64 l 5,5,-1
 128 64 l 5,6,-1
 448 64 l 5,7,-1
 448 384 l 5,8,-1
 576 384 l 5,9,-1
 576 -384 l 5,0,-1
EndSplineSet
Validated: 1
EndChar

StartChar: cacute
Encoding: 263 263 19
Width: 704
Flags: W
LayerCount: 2
Fore
SplineSet
128 384 m 5,0,-1
 576 384 l 5,1,-1
 576 256 l 5,2,-1
 256 256 l 5,3,-1
 256 64 l 5,4,-1
 576 64 l 5,5,-1
 576 -64 l 5,6,-1
 256 -64 l 5,7,-1
 256 -384 l 5,8,-1
 128 -384 l 5,9,-1
 128 384 l 5,0,-1
EndSplineSet
Validated: 1
EndChar

StartChar: Ccircumflex
Encoding: 264 264 20
Width: 704
Flags: W
LayerCount: 2
Fore
SplineSet
128 -384 m 1,0,-1
 128 384 l 1,1,-1
 256 384 l 1,2,-1
 256 64 l 1,3,-1
 576 64 l 1,4,-1
 576 -64 l 1,5,-1
 256 -64 l 1,6,-1
 256 -256 l 1,7,-1
 576 -256 l 1,8,-1
 576 -384 l 1,9,-1
 128 -384 l 1,0,-1
EndSplineSet
Validated: 1
EndChar

StartChar: ccircumflex
Encoding: 265 265 21
Width: 704
Flags: W
LayerCount: 2
Fore
SplineSet
576 384 m 1,0,-1
 576 -384 l 1,1,-1
 448 -384 l 1,2,-1
 448 -64 l 1,3,-1
 128 -64 l 1,4,-1
 128 64 l 1,5,-1
 448 64 l 1,6,-1
 448 256 l 1,7,-1
 128 256 l 1,8,-1
 128 384 l 1,9,-1
 576 384 l 1,0,-1
EndSplineSet
Validated: 1
EndChar

StartChar: Cdotaccent
Encoding: 266 266 22
Width: 704
Flags: W
LayerCount: 2
Fore
SplineSet
576 -384 m 5,0,-1
 128 -384 l 5,1,-1
 128 -256 l 5,2,-1
 448 -256 l 5,3,-1
 448 -64 l 5,4,-1
 256 -64 l 5,5,-1
 128 -64 l 5,6,-1
 128 64 l 5,7,-1
 128 384 l 5,8,-1
 256 384 l 5,9,-1
 256 64 l 5,10,-1
 448 64 l 5,11,-1
 448 384 l 5,12,-1
 576 384 l 5,13,-1
 576 -384 l 5,0,-1
EndSplineSet
Validated: 1
EndChar

StartChar: cdotaccent
Encoding: 267 267 23
Width: 704
Flags: W
LayerCount: 2
Fore
SplineSet
128 384 m 5,0,-1
 576 384 l 5,1,-1
 576 256 l 5,2,-1
 256 256 l 5,3,-1
 256 64 l 5,4,-1
 448 64 l 5,5,-1
 576 64 l 5,6,-1
 576 -64 l 5,7,-1
 576 -384 l 5,8,-1
 448 -384 l 5,9,-1
 448 -64 l 5,10,-1
 256 -64 l 5,11,-1
 256 -384 l 5,12,-1
 128 -384 l 5,13,-1
 128 384 l 5,0,-1
EndSplineSet
Validated: 1
EndChar

StartChar: Dcroat
Encoding: 272 272 24
Width: 1024
VWidth: 1689
Flags: W
LayerCount: 2
Fore
SplineSet
256 64 m 1,0,-1
 256 0 l 2,1,2
 256 -106 256 -106 331 -181 c 128,-1,3
 406 -256 406 -256 512 -256 c 128,-1,4
 618 -256 618 -256 693 -181 c 128,-1,5
 768 -106 768 -106 768 0 c 2,6,-1
 768 64 l 1,7,-1
 896 64 l 1,8,-1
 896 0 l 2,9,10
 896 -159 896 -159 783.5 -271.5 c 128,-1,11
 671 -384 671 -384 512 -384 c 128,-1,12
 353 -384 353 -384 240.5 -271.5 c 128,-1,13
 128 -159 128 -159 128 0 c 2,14,-1
 128 64 l 1,15,-1
 128 384 l 1,16,-1
 256 384 l 1,17,-1
 256 64 l 1,0,-1
EndSplineSet
Validated: 1
EndChar

StartChar: dcroat
Encoding: 273 273 25
Width: 1024
VWidth: 1689
Flags: W
LayerCount: 2
Fore
SplineSet
256 64 m 5,0,-1
 256 0 l 6,1,2
 256 -106 256 -106 331 -181 c 132,-1,3
 406 -256 406 -256 512 -256 c 132,-1,4
 618 -256 618 -256 693 -181 c 132,-1,5
 768 -106 768 -106 768 0 c 6,6,-1
 768 64 l 5,7,-1
 896 64 l 5,8,-1
 896 0 l 6,9,10
 896 -159 896 -159 783.5 -271.5 c 132,-1,11
 671 -384 671 -384 512 -384 c 132,-1,12
 353 -384 353 -384 240.5 -271.5 c 132,-1,13
 128 -159 128 -159 128 0 c 6,14,-1
 128 64 l 5,15,-1
 128 256 l 5,16,-1
 128 384 l 5,17,-1
 256 384 l 5,18,-1
 576 384 l 5,19,-1
 576 256 l 5,20,-1
 256 256 l 5,21,-1
 256 64 l 5,0,-1
EndSplineSet
Validated: 1025
EndChar

StartChar: Emacron
Encoding: 274 274 26
Width: 1024
VWidth: 1689
Flags: W
LayerCount: 2
Fore
SplineSet
448 -256 m 5,0,-1
 512 -256 l 6,1,2
 618 -256 618 -256 693 -181 c 132,-1,3
 768 -106 768 -106 768 0 c 132,-1,4
 768 106 768 106 693 181 c 132,-1,5
 618 256 618 256 512 256 c 6,6,-1
 448 256 l 5,7,-1
 448 384 l 5,8,-1
 512 384 l 6,9,10
 671 384 671 384 783.5 271.5 c 132,-1,11
 896 159 896 159 896 0 c 132,-1,12
 896 -159 896 -159 783.5 -271.5 c 132,-1,13
 671 -384 671 -384 512 -384 c 6,14,-1
 448 -384 l 5,15,-1
 128 -384 l 5,16,-1
 128 -256 l 5,17,-1
 448 -256 l 5,0,-1
EndSplineSet
Validated: 1
EndChar

StartChar: emacron
Encoding: 275 275 27
Width: 1024
VWidth: 1689
Flags: W
LayerCount: 2
Fore
SplineSet
448 -256 m 5,0,-1
 512 -256 l 6,1,2
 618 -256 618 -256 693 -181 c 132,-1,3
 768 -106 768 -106 768 0 c 132,-1,4
 768 106 768 106 693 181 c 132,-1,5
 618 256 618 256 512 256 c 6,6,-1
 448 256 l 5,7,-1
 448 384 l 5,8,-1
 512 384 l 6,9,10
 671 384 671 384 783.5 271.5 c 132,-1,11
 896 159 896 159 896 0 c 132,-1,12
 896 -159 896 -159 783.5 -271.5 c 132,-1,13
 671 -384 671 -384 512 -384 c 6,14,-1
 448 -384 l 5,15,-1
 256 -384 l 5,16,-1
 128 -384 l 5,17,-1
 128 -256 l 5,18,-1
 128 64 l 5,19,-1
 256 64 l 5,20,-1
 256 -256 l 5,21,-1
 448 -256 l 5,0,-1
EndSplineSet
Validated: 1025
EndChar

StartChar: Ebreve
Encoding: 276 276 28
Width: 1024
VWidth: 1689
Flags: W
LayerCount: 2
Fore
SplineSet
768 -64 m 5,0,-1
 768 0 l 6,1,2
 768 106 768 106 693 181 c 132,-1,3
 618 256 618 256 512 256 c 132,-1,4
 406 256 406 256 331 181 c 132,-1,5
 256 106 256 106 256 0 c 6,6,-1
 256 -64 l 5,7,-1
 128 -64 l 5,8,-1
 128 0 l 6,9,10
 128 159 128 159 240.5 271.5 c 132,-1,11
 353 384 353 384 512 384 c 132,-1,12
 671 384 671 384 783.5 271.5 c 132,-1,13
 896 159 896 159 896 0 c 6,14,-1
 896 -64 l 5,15,-1
 896 -384 l 5,16,-1
 768 -384 l 5,17,-1
 768 -64 l 5,0,-1
EndSplineSet
Validated: 1
EndChar

StartChar: ebreve
Encoding: 277 277 29
Width: 1024
VWidth: 1689
Flags: W
LayerCount: 2
Fore
SplineSet
768 -64 m 5,0,-1
 768 0 l 6,1,2
 768 106 768 106 693 181 c 132,-1,3
 618 256 618 256 512 256 c 132,-1,4
 406 256 406 256 331 181 c 132,-1,5
 256 106 256 106 256 0 c 6,6,-1
 256 -64 l 5,7,-1
 128 -64 l 5,8,-1
 128 0 l 6,9,10
 128 159 128 159 240.5 271.5 c 132,-1,11
 353 384 353 384 512 384 c 132,-1,12
 671 384 671 384 783.5 271.5 c 132,-1,13
 896 159 896 159 896 0 c 6,14,-1
 896 -64 l 5,15,-1
 896 -256 l 5,16,-1
 896 -384 l 5,17,-1
 768 -384 l 5,18,-1
 448 -384 l 5,19,-1
 448 -256 l 5,20,-1
 768 -256 l 5,21,-1
 768 -64 l 5,0,-1
EndSplineSet
Validated: 1025
EndChar

StartChar: Edotaccent
Encoding: 278 278 30
Width: 1024
VWidth: 1689
Flags: W
LayerCount: 2
Fore
SplineSet
576 256 m 5,0,-1
 512 256 l 6,1,2
 406 256 406 256 331 181 c 132,-1,3
 256 106 256 106 256 0 c 132,-1,4
 256 -106 256 -106 331 -181 c 132,-1,5
 406 -256 406 -256 512 -256 c 6,6,-1
 576 -256 l 5,7,-1
 576 -384 l 5,8,-1
 512 -384 l 6,9,10
 353 -384 353 -384 240.5 -271.5 c 132,-1,11
 128 -159 128 -159 128 0 c 132,-1,12
 128 159 128 159 240.5 271.5 c 132,-1,13
 353 384 353 384 512 384 c 6,14,-1
 576 384 l 5,15,-1
 896 384 l 5,16,-1
 896 256 l 5,17,-1
 576 256 l 5,0,-1
EndSplineSet
Validated: 1
EndChar

StartChar: edotaccent
Encoding: 279 279 31
Width: 1024
VWidth: 1689
Flags: W
LayerCount: 2
Fore
SplineSet
576 256 m 5,0,-1
 512 256 l 6,1,2
 406 256 406 256 331 181 c 132,-1,3
 256 106 256 106 256 0 c 132,-1,4
 256 -106 256 -106 331 -181 c 132,-1,5
 406 -256 406 -256 512 -256 c 6,6,-1
 576 -256 l 5,7,-1
 576 -384 l 5,8,-1
 512 -384 l 6,9,10
 353 -384 353 -384 240.5 -271.5 c 132,-1,11
 128 -159 128 -159 128 0 c 132,-1,12
 128 159 128 159 240.5 271.5 c 132,-1,13
 353 384 353 384 512 384 c 6,14,-1
 576 384 l 5,15,-1
 768 384 l 5,16,-1
 896 384 l 5,17,-1
 896 256 l 5,18,-1
 896 -64 l 5,19,-1
 768 -64 l 5,20,-1
 768 256 l 5,21,-1
 576 256 l 5,0,-1
EndSplineSet
Validated: 1025
EndChar

StartChar: Eogonek
Encoding: 280 280 32
Width: 1024
VWidth: 1689
Flags: W
LayerCount: 2
Fore
SplineSet
768 64 m 1,0,-1
 768 384 l 1,1,-1
 896 384 l 1,2,-1
 896 64 l 1,3,-1
 896 0 l 2,4,5
 896 -159 896 -159 783.5 -271.5 c 128,-1,6
 671 -384 671 -384 512 -384 c 132,-1,7
 353 -384 353 -384 240.5 -271.5 c 132,-1,8
 128 -159 128 -159 128 0 c 6,9,10
 128 0 128 0 128 64 c 5,11,-1
 256 64 l 5,12,-1
 256 0 l 6,13,14
 256 -106 256 -106 331 -181 c 132,-1,15
 406 -256 406 -256 512 -256 c 132,-1,16
 618 -256 618 -256 693 -181 c 128,-1,17
 768 -106 768 -106 768 0 c 2,18,19
 768 0 768 0 768 64 c 1,0,-1
EndSplineSet
Validated: 1
EndChar

StartChar: eogonek
Encoding: 281 281 33
Width: 1024
VWidth: 1689
Flags: W
LayerCount: 2
Fore
SplineSet
768 64 m 1,0,-1
 768 256 l 1,1,-1
 448 256 l 1,2,-1
 448 384 l 1,3,-1
 768 384 l 1,4,-1
 896 384 l 1,5,-1
 896 256 l 1,6,-1
 896 64 l 1,7,-1
 896 0 l 2,8,9
 896 -159 896 -159 783.5 -271.5 c 128,-1,10
 671 -384 671 -384 512 -384 c 128,-1,11
 353 -384 353 -384 240.5 -271.5 c 128,-1,12
 128 -159 128 -159 128 0 c 2,13,14
 128 0 128 0 128 64 c 1,15,-1
 256 64 l 1,16,-1
 256 0 l 2,17,18
 256 -106 256 -106 331 -181 c 128,-1,19
 406 -256 406 -256 512 -256 c 128,-1,20
 618 -256 618 -256 693 -181 c 128,-1,21
 768 -106 768 -106 768 0 c 2,22,23
 768 0 768 0 768 64 c 1,0,-1
EndSplineSet
Validated: 1025
EndChar

StartChar: Ecaron
Encoding: 282 282 34
Width: 1024
VWidth: 1689
Flags: W
LayerCount: 2
Fore
SplineSet
448 256 m 1,0,-1
 128 256 l 1,1,-1
 128 384 l 1,2,-1
 448 384 l 1,3,-1
 512 384 l 2,4,5
 671 384 671 384 783.5 271.5 c 128,-1,6
 896 159 896 159 896 0 c 128,-1,7
 896 -159 896 -159 783.5 -271.5 c 128,-1,8
 671 -384 671 -384 512 -384 c 2,9,10
 512 -384 512 -384 448 -384 c 1,11,-1
 448 -256 l 1,12,-1
 512 -256 l 2,13,14
 618 -256 618 -256 693 -181 c 128,-1,15
 768 -106 768 -106 768 0 c 128,-1,16
 768 106 768 106 693 181 c 128,-1,17
 618 256 618 256 512 256 c 2,18,19
 512 256 512 256 448 256 c 1,0,-1
EndSplineSet
Validated: 1
EndChar

StartChar: ecaron
Encoding: 283 283 35
Width: 1024
VWidth: 1689
Flags: W
LayerCount: 2
Fore
SplineSet
448 256 m 1,0,-1
 256 256 l 1,1,-1
 256 -64 l 1,2,-1
 128 -64 l 1,3,-1
 128 256 l 1,4,-1
 128 384 l 1,5,-1
 256 384 l 1,6,-1
 448 384 l 1,7,-1
 512 384 l 2,8,9
 671 384 671 384 783.5 271.5 c 128,-1,10
 896 159 896 159 896 0 c 128,-1,11
 896 -159 896 -159 783.5 -271.5 c 128,-1,12
 671 -384 671 -384 512 -384 c 2,13,14
 512 -384 512 -384 448 -384 c 1,15,-1
 448 -256 l 1,16,-1
 512 -256 l 2,17,18
 618 -256 618 -256 693 -181 c 128,-1,19
 768 -106 768 -106 768 0 c 128,-1,20
 768 106 768 106 693 181 c 128,-1,21
 618 256 618 256 512 256 c 2,22,23
 512 256 512 256 448 256 c 1,0,-1
EndSplineSet
Validated: 1025
EndChar

StartChar: Gcircumflex
Encoding: 284 284 36
Width: 1024
VWidth: 1689
Flags: W
LayerCount: 2
Fore
SplineSet
256 -64 m 1,0,-1
 256 -384 l 1,1,-1
 128 -384 l 1,2,-1
 128 -64 l 1,3,-1
 128 0 l 2,4,5
 128 159 128 159 240.5 271.5 c 128,-1,6
 353 384 353 384 512 384 c 128,-1,7
 671 384 671 384 783.5 271.5 c 128,-1,8
 896 159 896 159 896 0 c 2,9,10
 896 0 896 0 896 -64 c 1,11,-1
 768 -64 l 1,12,-1
 768 0 l 2,13,14
 768 106 768 106 693 181 c 128,-1,15
 618 256 618 256 512 256 c 128,-1,16
 406 256 406 256 331 181 c 128,-1,17
 256 106 256 106 256 0 c 2,18,19
 256 0 256 0 256 -64 c 1,0,-1
EndSplineSet
Validated: 1
EndChar

StartChar: gcircumflex
Encoding: 285 285 37
Width: 1024
VWidth: 1689
Flags: W
LayerCount: 2
Fore
SplineSet
256 -64 m 1,0,-1
 256 -256 l 1,1,-1
 576 -256 l 1,2,-1
 576 -384 l 1,3,-1
 256 -384 l 1,4,-1
 128 -384 l 1,5,-1
 128 -256 l 1,6,-1
 128 -64 l 1,7,-1
 128 0 l 2,8,9
 128 159 128 159 240.5 271.5 c 128,-1,10
 353 384 353 384 512 384 c 132,-1,11
 671 384 671 384 783.5 271.5 c 132,-1,12
 896 159 896 159 896 0 c 6,13,14
 896 0 896 0 896 -64 c 1,15,-1
 768 -64 l 1,16,-1
 768 0 l 6,17,18
 768 106 768 106 693 181 c 132,-1,19
 618 256 618 256 512 256 c 132,-1,20
 406 256 406 256 331 181 c 128,-1,21
 256 106 256 106 256 0 c 2,22,23
 256 0 256 0 256 -64 c 1,0,-1
EndSplineSet
Validated: 1025
EndChar

StartChar: Gbreve
Encoding: 286 286 38
Width: 1024
VWidth: 1689
Flags: W
LayerCount: 2
Fore
SplineSet
576 -256 m 1,0,-1
 896 -256 l 1,1,-1
 896 -384 l 1,2,-1
 576 -384 l 1,3,-1
 512 -384 l 2,4,5
 353 -384 353 -384 240.5 -271.5 c 128,-1,6
 128 -159 128 -159 128 0 c 128,-1,7
 128 159 128 159 240.5 271.5 c 128,-1,8
 353 384 353 384 512 384 c 2,9,10
 512 384 512 384 576 384 c 1,11,-1
 576 256 l 1,12,-1
 512 256 l 2,13,14
 406 256 406 256 331 181 c 128,-1,15
 256 106 256 106 256 0 c 128,-1,16
 256 -106 256 -106 331 -181 c 128,-1,17
 406 -256 406 -256 512 -256 c 2,18,19
 512 -256 512 -256 576 -256 c 1,0,-1
EndSplineSet
Validated: 1
EndChar

StartChar: gbreve
Encoding: 287 287 39
Width: 1024
VWidth: 1689
Flags: W
LayerCount: 2
Fore
SplineSet
576 -256 m 1,0,-1
 768 -256 l 1,1,-1
 768 64 l 1,2,-1
 896 64 l 1,3,-1
 896 -256 l 1,4,-1
 896 -384 l 1,5,-1
 768 -384 l 1,6,-1
 576 -384 l 1,7,-1
 512 -384 l 2,8,9
 353 -384 353 -384 240.5 -271.5 c 128,-1,10
 128 -159 128 -159 128 0 c 128,-1,11
 128 159 128 159 240.5 271.5 c 128,-1,12
 353 384 353 384 512 384 c 2,13,14
 512 384 512 384 576 384 c 1,15,-1
 576 256 l 1,16,-1
 512 256 l 2,17,18
 406 256 406 256 331 181 c 128,-1,19
 256 106 256 106 256 0 c 128,-1,20
 256 -106 256 -106 331 -181 c 128,-1,21
 406 -256 406 -256 512 -256 c 2,22,23
 512 -256 512 -256 576 -256 c 1,0,-1
EndSplineSet
Validated: 1025
EndChar

StartChar: Gdotaccent
Encoding: 288 288 40
Width: 1024
VWidth: 1689
Flags: W
LayerCount: 2
Fore
SplineSet
256 0 m 5,0,-1
 256 -256 l 5,1,-1
 448 -256 l 5,2,-1
 512 -256 l 6,3,4
 618 -256 618 -256 693 -181 c 132,-1,5
 768 -106 768 -106 768 0 c 6,6,-1
 768 64 l 5,7,-1
 896 64 l 5,8,-1
 896 0 l 6,9,10
 896 -159 896 -159 783.5 -271.5 c 132,-1,11
 671 -384 671 -384 512 -384 c 6,12,-1
 448 -384 l 5,13,-1
 256 -384 l 5,14,-1
 128 -384 l 5,15,-1
 128 0 l 5,16,-1
 128 384 l 5,17,-1
 256 384 l 5,18,-1
 256 0 l 5,0,-1
EndSplineSet
Validated: 1025
EndChar

StartChar: gdotaccent
Encoding: 289 289 41
Width: 1024
VWidth: 1689
Flags: W
LayerCount: 2
Fore
SplineSet
128 384 m 5,0,-1
 576 384 l 1,1,-1
 576 256 l 1,2,-1
 256 256 l 1,3,-1
 256 -256 l 1,4,-1
 448 -256 l 1,5,-1
 512 -256 l 2,6,7
 618 -256 618 -256 693 -181 c 128,-1,8
 768 -106 768 -106 768 0 c 2,9,-1
 768 64 l 1,10,-1
 896 64 l 1,11,-1
 896 0 l 2,12,13
 896 -159 896 -159 783.5 -271.5 c 128,-1,14
 671 -384 671 -384 512 -384 c 2,15,-1
 448 -384 l 1,16,-1
 256 -384 l 1,17,-1
 128 -384 l 5,18,-1
 128 384 l 5,0,-1
EndSplineSet
Validated: 1025
EndChar

StartChar: uni0122
Encoding: 290 290 42
Width: 1024
VWidth: 1689
Flags: W
LayerCount: 2
Fore
SplineSet
512 -256 m 5,0,-1
 768 -256 l 5,1,-1
 768 -64 l 5,2,-1
 768 0 l 6,3,4
 768 106 768 106 693 181 c 132,-1,5
 618 256 618 256 512 256 c 6,6,-1
 448 256 l 5,7,-1
 448 384 l 5,8,-1
 512 384 l 6,9,10
 671 384 671 384 783.5 271.5 c 132,-1,11
 896 159 896 159 896 0 c 6,12,-1
 896 -64 l 5,13,-1
 896 -256 l 5,14,-1
 896 -384 l 5,15,-1
 512 -384 l 5,16,-1
 128 -384 l 5,17,-1
 128 -256 l 5,18,-1
 512 -256 l 5,0,-1
EndSplineSet
Validated: 1025
EndChar

StartChar: uni0123
Encoding: 291 291 43
Width: 1024
VWidth: 1689
Flags: W
LayerCount: 2
Fore
SplineSet
128 -384 m 5,0,-1
 128 64 l 1,1,-1
 256 64 l 1,2,-1
 256 -256 l 1,3,-1
 768 -256 l 1,4,-1
 768 -64 l 1,5,-1
 768 0 l 2,6,7
 768 106 768 106 693 181 c 128,-1,8
 618 256 618 256 512 256 c 2,9,-1
 448 256 l 1,10,-1
 448 384 l 1,11,-1
 512 384 l 2,12,13
 671 384 671 384 783.5 271.5 c 128,-1,14
 896 159 896 159 896 0 c 2,15,-1
 896 -64 l 1,16,-1
 896 -256 l 1,17,-1
 896 -384 l 5,18,-1
 128 -384 l 5,0,-1
EndSplineSet
Validated: 1025
EndChar

StartChar: Hcircumflex
Encoding: 292 292 44
Width: 1024
VWidth: 1689
Flags: W
LayerCount: 2
Fore
SplineSet
768 0 m 5,0,-1
 768 256 l 5,1,-1
 576 256 l 5,2,-1
 512 256 l 6,3,4
 406 256 406 256 331 181 c 132,-1,5
 256 106 256 106 256 0 c 6,6,-1
 256 -64 l 5,7,-1
 128 -64 l 5,8,-1
 128 0 l 6,9,10
 128 159 128 159 240.5 271.5 c 132,-1,11
 353 384 353 384 512 384 c 6,12,-1
 576 384 l 5,13,-1
 768 384 l 5,14,-1
 896 384 l 5,15,-1
 896 0 l 5,16,-1
 896 -384 l 5,17,-1
 768 -384 l 5,18,-1
 768 0 l 5,0,-1
EndSplineSet
Validated: 1025
EndChar

StartChar: hcircumflex
Encoding: 293 293 45
Width: 1024
VWidth: 1689
Flags: W
LayerCount: 2
Fore
SplineSet
896 -384 m 5,0,-1
 448 -384 l 1,1,-1
 448 -256 l 1,2,-1
 768 -256 l 1,3,-1
 768 256 l 1,4,-1
 576 256 l 1,5,-1
 512 256 l 2,6,7
 406 256 406 256 331 181 c 128,-1,8
 256 106 256 106 256 0 c 2,9,-1
 256 -64 l 1,10,-1
 128 -64 l 1,11,-1
 128 0 l 2,12,13
 128 159 128 159 240.5 271.5 c 128,-1,14
 353 384 353 384 512 384 c 2,15,-1
 576 384 l 1,16,-1
 768 384 l 1,17,-1
 896 384 l 5,18,-1
 896 -384 l 5,0,-1
EndSplineSet
Validated: 1025
EndChar

StartChar: Hbar
Encoding: 294 294 46
Width: 1024
VWidth: 1689
Flags: W
LayerCount: 2
Fore
SplineSet
512 256 m 5,0,-1
 256 256 l 5,1,-1
 256 64 l 5,2,-1
 256 0 l 6,3,4
 256 -106 256 -106 331 -181 c 132,-1,5
 406 -256 406 -256 512 -256 c 6,6,-1
 576 -256 l 5,7,-1
 576 -384 l 5,8,-1
 512 -384 l 6,9,10
 353 -384 353 -384 240.5 -271.5 c 132,-1,11
 128 -159 128 -159 128 0 c 6,12,-1
 128 64 l 5,13,-1
 128 256 l 5,14,-1
 128 384 l 5,15,-1
 512 384 l 5,16,-1
 896 384 l 5,17,-1
 896 256 l 5,18,-1
 512 256 l 5,0,-1
EndSplineSet
Validated: 1025
EndChar

StartChar: hbar
Encoding: 295 295 47
Width: 1024
VWidth: 1689
Flags: W
LayerCount: 2
Fore
SplineSet
896 384 m 5,0,-1
 896 -64 l 1,1,-1
 768 -64 l 1,2,-1
 768 256 l 1,3,-1
 256 256 l 1,4,-1
 256 64 l 1,5,-1
 256 0 l 2,6,7
 256 -106 256 -106 331 -181 c 128,-1,8
 406 -256 406 -256 512 -256 c 2,9,-1
 576 -256 l 1,10,-1
 576 -384 l 1,11,-1
 512 -384 l 2,12,13
 353 -384 353 -384 240.5 -271.5 c 128,-1,14
 128 -159 128 -159 128 0 c 2,15,-1
 128 64 l 1,16,-1
 128 256 l 1,17,-1
 128 384 l 5,18,-1
 896 384 l 5,0,-1
EndSplineSet
Validated: 1025
EndChar

StartChar: Itilde
Encoding: 296 296 48
Width: 1024
VWidth: 1689
Flags: W
LayerCount: 2
Fore
SplineSet
768 0 m 5,0,-1
 768 384 l 5,1,-1
 896 384 l 5,2,-1
 896 0 l 5,3,-1
 896 -384 l 5,4,-1
 768 -384 l 5,5,-1
 576 -384 l 5,6,-1
 512 -384 l 6,7,8
 353 -384 353 -384 240.5 -271.5 c 132,-1,9
 128 -159 128 -159 128 0 c 6,10,11
 128 0 128 0 128 64 c 5,12,-1
 256 64 l 5,13,-1
 256 0 l 6,14,15
 256 -106 256 -106 331 -181 c 132,-1,16
 406 -256 406 -256 512 -256 c 6,17,18
 512 -256 512 -256 576 -256 c 5,19,-1
 768 -256 l 5,20,-1
 768 0 l 5,0,-1
EndSplineSet
Validated: 1025
EndChar

StartChar: itilde
Encoding: 297 297 49
Width: 1024
VWidth: 1689
Flags: W
LayerCount: 2
Fore
SplineSet
896 384 m 5,0,-1
 896 -384 l 5,1,-1
 768 -384 l 5,2,-1
 576 -384 l 5,3,-1
 512 -384 l 6,4,5
 353 -384 353 -384 240.5 -271.5 c 132,-1,6
 128 -159 128 -159 128 0 c 6,7,8
 128 0 128 0 128 64 c 5,9,-1
 256 64 l 5,10,-1
 256 0 l 6,11,12
 256 -106 256 -106 331 -181 c 132,-1,13
 406 -256 406 -256 512 -256 c 6,14,15
 512 -256 512 -256 576 -256 c 5,16,-1
 768 -256 l 5,17,-1
 768 256 l 5,18,-1
 448 256 l 5,19,-1
 448 384 l 5,20,-1
 896 384 l 5,0,-1
EndSplineSet
Validated: 1025
EndChar

StartChar: Imacron
Encoding: 298 298 50
Width: 1024
VWidth: 1689
Flags: W
LayerCount: 2
Fore
SplineSet
512 256 m 5,0,-1
 128 256 l 5,1,-1
 128 384 l 5,2,-1
 512 384 l 5,3,-1
 896 384 l 5,4,-1
 896 256 l 5,5,-1
 896 64 l 5,6,-1
 896 0 l 6,7,8
 896 -159 896 -159 783.5 -271.5 c 132,-1,9
 671 -384 671 -384 512 -384 c 6,10,11
 512 -384 512 -384 448 -384 c 5,12,-1
 448 -256 l 5,13,-1
 512 -256 l 6,14,15
 618 -256 618 -256 693 -181 c 132,-1,16
 768 -106 768 -106 768 0 c 6,17,18
 768 0 768 0 768 64 c 5,19,-1
 768 256 l 5,20,-1
 512 256 l 5,0,-1
EndSplineSet
Validated: 1025
EndChar

StartChar: imacron
Encoding: 299 299 51
Width: 1024
VWidth: 1689
Flags: W
LayerCount: 2
Fore
SplineSet
128 384 m 5,0,-1
 896 384 l 5,1,-1
 896 256 l 5,2,-1
 896 64 l 5,3,-1
 896 0 l 6,4,5
 896 -159 896 -159 783.5 -271.5 c 132,-1,6
 671 -384 671 -384 512 -384 c 6,7,8
 512 -384 512 -384 448 -384 c 5,9,-1
 448 -256 l 5,10,-1
 512 -256 l 6,11,12
 618 -256 618 -256 693 -181 c 132,-1,13
 768 -106 768 -106 768 0 c 6,14,15
 768 0 768 0 768 64 c 5,16,-1
 768 256 l 5,17,-1
 256 256 l 5,18,-1
 256 -64 l 5,19,-1
 128 -64 l 5,20,-1
 128 384 l 5,0,-1
EndSplineSet
Validated: 1025
EndChar

StartChar: Ibreve
Encoding: 300 300 52
Width: 1024
VWidth: 1689
Flags: W
LayerCount: 2
Fore
SplineSet
256 0 m 5,0,-1
 256 -384 l 5,1,-1
 128 -384 l 5,2,-1
 128 0 l 5,3,-1
 128 384 l 5,4,-1
 256 384 l 5,5,-1
 448 384 l 5,6,-1
 512 384 l 6,7,8
 671 384 671 384 783.5 271.5 c 132,-1,9
 896 159 896 159 896 0 c 6,10,11
 896 0 896 0 896 -64 c 5,12,-1
 768 -64 l 5,13,-1
 768 0 l 6,14,15
 768 106 768 106 693 181 c 132,-1,16
 618 256 618 256 512 256 c 6,17,18
 512 256 512 256 448 256 c 5,19,-1
 256 256 l 5,20,-1
 256 0 l 5,0,-1
EndSplineSet
Validated: 1025
EndChar

StartChar: ibreve
Encoding: 301 301 53
Width: 1024
VWidth: 1689
Flags: W
LayerCount: 2
Fore
SplineSet
128 -384 m 5,0,-1
 128 384 l 5,1,-1
 256 384 l 5,2,-1
 448 384 l 5,3,-1
 512 384 l 6,4,5
 671 384 671 384 783.5 271.5 c 132,-1,6
 896 159 896 159 896 0 c 6,7,8
 896 0 896 0 896 -64 c 5,9,-1
 768 -64 l 5,10,-1
 768 0 l 6,11,12
 768 106 768 106 693 181 c 132,-1,13
 618 256 618 256 512 256 c 6,14,15
 512 256 512 256 448 256 c 5,16,-1
 256 256 l 5,17,-1
 256 -256 l 5,18,-1
 576 -256 l 5,19,-1
 576 -384 l 5,20,-1
 128 -384 l 5,0,-1
EndSplineSet
Validated: 1025
EndChar

StartChar: Iogonek
Encoding: 302 302 54
Width: 1024
VWidth: 1689
Flags: W
LayerCount: 2
Fore
SplineSet
512 -256 m 5,0,-1
 896 -256 l 5,1,-1
 896 -384 l 5,2,-1
 512 -384 l 5,3,-1
 128 -384 l 5,4,-1
 128 -256 l 5,5,-1
 128 -64 l 5,6,-1
 128 0 l 6,7,8
 128 159 128 159 240.5 271.5 c 132,-1,9
 353 384 353 384 512 384 c 6,10,11
 512 384 512 384 576 384 c 5,12,-1
 576 256 l 5,13,-1
 512 256 l 6,14,15
 406 256 406 256 331 181 c 132,-1,16
 256 106 256 106 256 0 c 6,17,18
 256 0 256 0 256 -64 c 5,19,-1
 256 -256 l 5,20,-1
 512 -256 l 5,0,-1
EndSplineSet
Validated: 1025
EndChar

StartChar: iogonek
Encoding: 303 303 55
Width: 1024
VWidth: 1689
Flags: W
LayerCount: 2
Fore
SplineSet
896 -384 m 5,0,-1
 128 -384 l 5,1,-1
 128 -256 l 5,2,-1
 128 -64 l 5,3,-1
 128 0 l 6,4,5
 128 159 128 159 240.5 271.5 c 132,-1,6
 353 384 353 384 512 384 c 6,7,8
 512 384 512 384 576 384 c 5,9,-1
 576 256 l 5,10,-1
 512 256 l 6,11,12
 406 256 406 256 331 181 c 132,-1,13
 256 106 256 106 256 0 c 6,14,15
 256 0 256 0 256 -64 c 5,16,-1
 256 -256 l 5,17,-1
 768 -256 l 5,18,-1
 768 64 l 5,19,-1
 896 64 l 5,20,-1
 896 -384 l 5,0,-1
EndSplineSet
Validated: 1025
EndChar

StartChar: at
Encoding: 64 64 56
Width: 704
Flags: W
LayerCount: 2
Fore
SplineSet
576 384 m 1,0,-1
 576 -384 l 1,1,-1
 448 -384 l 1,2,-1
 448 -64 l 1,3,-1
 256 -64 l 1,4,-1
 256 -384 l 1,5,-1
 128 -384 l 1,6,-1
 128 -64 l 1,7,-1
 128 64 l 1,8,-1
 256 64 l 1,9,-1
 448 64 l 1,10,-1
 448 256 l 1,11,-1
 128 256 l 1,12,-1
 128 384 l 1,13,-1
 576 384 l 1,0,-1
EndSplineSet
Validated: 1
EndChar

StartChar: period
Encoding: 46 46 57
Width: 1024
VWidth: 1689
Flags: W
LayerCount: 2
Fore
SplineSet
448 384 m 5,0,-1
 576 384 l 5,1,-1
 576 -384 l 5,2,-1
 448 -384 l 5,3,-1
 448 384 l 5,0,-1
EndSplineSet
Validated: 1
EndChar

StartChar: exclam
Encoding: 33 33 58
Width: 704
Flags: W
LayerCount: 2
Fore
SplineSet
128 -384 m 1,0,-1
 128 384 l 1,1,-1
 256 384 l 1,2,-1
 256 64 l 1,3,-1
 448 64 l 1,4,-1
 448 384 l 1,5,-1
 576 384 l 1,6,-1
 576 64 l 1,7,-1
 576 -64 l 1,8,-1
 448 -64 l 1,9,-1
 256 -64 l 1,10,-1
 256 -256 l 1,11,-1
 576 -256 l 1,12,-1
 576 -384 l 1,13,-1
 128 -384 l 1,0,-1
EndSplineSet
Validated: 1
EndChar

StartChar: less
Encoding: 60 60 59
Width: 1024
VWidth: 1689
Flags: W
LayerCount: 2
Fore
SplineSet
768 384 m 1,0,-1
 768 256 l 1,1,-1
 512 0 l 1,2,-1
 768 -256 l 1,3,-1
 768 -384 l 1,4,-1
 256 0 l 1,5,-1
 768 384 l 1,0,-1
EndSplineSet
Validated: 1
EndChar

StartChar: greater
Encoding: 62 62 60
Width: 1024
VWidth: 1689
Flags: W
LayerCount: 2
Fore
SplineSet
256 384 m 1,0,-1
 768 0 l 1,1,-1
 256 -384 l 1,2,-1
 256 -256 l 1,3,-1
 512 0 l 1,4,-1
 256 256 l 1,5,-1
 256 384 l 1,0,-1
EndSplineSet
Validated: 1
EndChar

StartChar: uni0000
Encoding: 0 0 61
Width: 1024
LayerCount: 2
Fore
SplineSet
128 384 m 5,0,-1
 512 64 l 5,1,-1
 896 384 l 5,2,-1
 576 0 l 5,3,-1
 896 -384 l 5,4,-1
 512 -64 l 5,5,-1
 128 -384 l 5,6,-1
 448 0 l 5,7,-1
 128 384 l 5,0,-1
EndSplineSet
Validated: 1
EndChar

StartChar: Ccaron
Encoding: 268 268 62
Width: 704
Flags: W
LayerCount: 2
Fore
SplineSet
128 -384 m 1,0,-1
 128 384 l 1,1,-1
 256 384 l 1,2,-1
 256 64 l 1,3,-1
 448 64 l 1,4,-1
 448 384 l 1,5,-1
 576 384 l 1,6,-1
 576 64 l 1,7,-1
 576 -64 l 1,8,-1
 448 -64 l 1,9,-1
 256 -64 l 1,10,-1
 256 -256 l 1,11,-1
 576 -256 l 1,12,-1
 576 -384 l 1,13,-1
 128 -384 l 1,0,-1
EndSplineSet
Validated: 1
EndChar

StartChar: ccaron
Encoding: 269 269 63
Width: 704
Flags: W
LayerCount: 2
Fore
SplineSet
576 384 m 1,0,-1
 576 -384 l 1,1,-1
 448 -384 l 1,2,-1
 448 -64 l 1,3,-1
 256 -64 l 1,4,-1
 256 -384 l 1,5,-1
 128 -384 l 1,6,-1
 128 -64 l 1,7,-1
 128 64 l 1,8,-1
 256 64 l 1,9,-1
 448 64 l 1,10,-1
 448 256 l 1,11,-1
 128 256 l 1,12,-1
 128 384 l 1,13,-1
 576 384 l 1,0,-1
EndSplineSet
Validated: 1
EndChar

StartChar: Idotaccent
Encoding: 304 336 64
Width: 1024
VWidth: 1689
Flags: W
LayerCount: 2
Fore
SplineSet
256 64 m 1,0,-1
 256 0 l 2,1,2
 256 -106 256 -106 331 -181 c 128,-1,3
 406 -256 406 -256 512 -256 c 128,-1,4
 618 -256 618 -256 693 -181 c 128,-1,5
 768 -106 768 -106 768 0 c 2,6,-1
 768 64 l 1,7,-1
 896 64 l 1,8,-1
 896 0 l 2,9,10
 896 -159 896 -159 783.5 -271.5 c 128,-1,11
 671 -384 671 -384 512 -384 c 128,-1,12
 353 -384 353 -384 240.5 -271.5 c 128,-1,13
 128 -159 128 -159 128 0 c 2,14,-1
 128 64 l 1,15,-1
 128 384 l 1,16,-1
 256 384 l 1,17,-1
 256 64 l 1,0,-1
EndSplineSet
Validated: 1
EndChar
